<?xml version="1.0" standalone="no"?>
<!DOCTYPE svg PUBLIC "-//W3C//DTD SVG 20010904//EN"
 "http://www.w3.org/TR/2001/REC-SVG-20010904/DTD/svg10.dtd">
<svg version="1.0" xmlns="http://www.w3.org/2000/svg"
 width="522.000000pt" height="522.000000pt" viewBox="0 0 522.000000 522.000000"
 preserveAspectRatio="xMidYMid meet">
<metadata>
Created by potrace 1.11, written by Peter Selinger 2001-2013
</metadata>
<g transform="translate(0.000000,522.000000) scale(0.100000,-0.100000)"
fill="#000000" stroke="none">
<path d="M5 3845 c3 -71 8 -143 10 -160 2 -16 7 -59 10 -95 4 -36 9 -68 11
-72 3 -4 7 -26 10 -50 14 -109 104 -431 149 -533 8 -16 28 -63 45 -104 72
-166 218 -421 305 -530 157 -196 287 -334 415 -442 36 -29 67 -57 70 -60 16
-19 211 -151 300 -203 193 -115 467 -230 647 -271 79 -18 214 -46 243 -50 85
-11 128 -16 175 -21 63 -6 358 -7 405 -1 19 3 64 8 100 12 82 8 257 40 330 60
30 9 62 17 71 19 27 7 171 58 249 88 87 34 308 148 395 203 233 148 470 359
640 571 22 27 44 54 50 61 5 7 15 18 21 25 91 111 301 492 359 653 82 224 136
428 160 605 3 25 8 56 10 70 5 32 14 150 20 263 4 84 4 87 -18 88 -12 1 -1184
2 -2605 3 l-2583 1 6 -130z"/>
</g>
</svg>
