<?xml version="1.0" standalone="no"?>
<!DOCTYPE svg PUBLIC "-//W3C//DTD SVG 20010904//EN"
 "http://www.w3.org/TR/2001/REC-SVG-20010904/DTD/svg10.dtd">
<svg version="1.0" xmlns="http://www.w3.org/2000/svg"
 width="300.000000pt" height="300.000000pt" viewBox="0 0 300.000000 300.000000"
 preserveAspectRatio="xMidYMid meet">
<metadata>
Created by potrace 1.11, written by Peter Selinger 2001-2013
</metadata>
<g transform="translate(0.000000,300.000000) scale(0.100000,-0.100000)"
fill="#000000" stroke="none">
<path d="M1280 2983 c-443 -65 -843 -334 -1070 -719 -90 -152 -161 -342 -185
-495 -3 -19 -9 -59 -14 -89 -5 -30 -8 -125 -6 -210 3 -134 9 -188 39 -335 13
-63 73 -221 119 -315 31 -63 138 -226 184 -280 227 -267 516 -438 863 -511 82
-17 141 -22 270 -23 91 -1 188 2 217 6 571 83 1038 466 1222 1003 16 50 32
101 35 115 3 14 12 61 21 105 22 106 27 361 9 480 -26 172 -71 311 -156 476
-213 416 -612 706 -1083 789 -102 18 -353 20 -465 3z"/>
</g>
</svg>
